<?xml version="1.0" encoding="utf-8"?>
<!-- Generator: Adobe Illustrator 24.2.3, SVG Export Plug-In . SVG Version: 6.00 Build 0)  -->
<svg version="1.1" id="Layer_1" xmlns="http://www.w3.org/2000/svg" xmlns:xlink="http://www.w3.org/1999/xlink" x="0px" y="0px"
	 viewBox="0 0 304.06 75.7" style="enable-background:new 0 0 304.06 75.7;" xml:space="preserve">
<style type="text/css">
	.st0{fill:#000C29;}
	.st1{fill:#EBF1FF;}
	.st2{fill:#0348D1;}
	.st3{fill:#0133A4;}
</style>
<g>
	<g>
		<path class="st0" d="M110.5,60.56c-3.24,0-6.11-0.68-8.61-2.04s-4.44-3.23-5.82-5.61S94,47.82,94,44.78V15.14h5.94v29.52
			c0,2.04,0.45,3.85,1.35,5.43c0.9,1.58,2.14,2.81,3.72,3.69c1.58,0.88,3.41,1.32,5.49,1.32c2.08,0,3.91-0.44,5.49-1.32
			c1.58-0.88,2.82-2.11,3.72-3.69c0.9-1.58,1.35-3.39,1.35-5.43V15.14H127v29.64c0,3.04-0.69,5.75-2.07,8.13
			c-1.38,2.38-3.31,4.25-5.79,5.61S113.78,60.56,110.5,60.56z"/>
		<path class="st0" d="M134.56,59.84V27.5h5.46v6.3l-0.9-0.54c0.8-2.04,2.09-3.63,3.87-4.77c1.78-1.14,3.87-1.71,6.27-1.71
			c2.32,0,4.39,0.52,6.21,1.56c1.82,1.04,3.26,2.48,4.32,4.32c1.06,1.84,1.59,3.92,1.59,6.24v20.94h-5.64V40.7
			c0-1.8-0.32-3.32-0.96-4.56c-0.64-1.24-1.55-2.21-2.73-2.91s-2.53-1.05-4.05-1.05c-1.52,0-2.87,0.35-4.05,1.05
			c-1.18,0.7-2.11,1.68-2.79,2.94c-0.68,1.26-1.02,2.77-1.02,4.53v19.14H134.56z"/>
		<path class="st0" d="M168.11,22.34v-7.2h5.58v7.2H168.11z M168.11,59.84V27.5h5.58v32.34H168.11z"/>
		<path class="st0" d="M197.46,60.56c-2.6,0-4.97-0.58-7.11-1.74c-2.14-1.16-3.79-2.8-4.95-4.92l0.78-0.96v6.9h-5.46V14.42h5.58
			v20.04l-0.84-1.38c1.2-1.92,2.84-3.45,4.92-4.59c2.08-1.14,4.46-1.71,7.14-1.71c3.04,0,5.77,0.74,8.19,2.22
			c2.42,1.48,4.33,3.49,5.73,6.03c1.4,2.54,2.1,5.43,2.1,8.67c0,3.16-0.7,6.02-2.1,8.58c-1.4,2.56-3.31,4.58-5.73,6.06
			C203.29,59.82,200.54,60.56,197.46,60.56z M197.04,55.16c2.04,0,3.86-0.5,5.46-1.5s2.85-2.37,3.75-4.11
			c0.9-1.74,1.35-3.69,1.35-5.85c0-2.24-0.45-4.21-1.35-5.91c-0.9-1.7-2.15-3.06-3.75-4.08c-1.6-1.02-3.42-1.53-5.46-1.53
			s-3.87,0.5-5.49,1.5c-1.62,1-2.9,2.37-3.84,4.11s-1.41,3.71-1.41,5.91c0,2.16,0.47,4.11,1.41,5.85c0.94,1.74,2.22,3.11,3.84,4.11
			C193.17,54.66,195,55.16,197.04,55.16z"/>
		<path class="st0" d="M233.7,60.56c-3.12,0-5.9-0.74-8.34-2.22c-2.44-1.48-4.36-3.51-5.76-6.09s-2.1-5.47-2.1-8.67
			c0-3.24,0.69-6.12,2.07-8.64c1.38-2.52,3.26-4.51,5.64-5.97c2.38-1.46,5.05-2.19,8.01-2.19c2.4,0,4.53,0.43,6.39,1.29
			c1.86,0.86,3.44,2.02,4.74,3.48c1.3,1.46,2.3,3.12,3,4.98c0.7,1.86,1.05,3.79,1.05,5.79c0,0.44-0.03,0.93-0.09,1.47
			c-0.06,0.54-0.13,1.05-0.21,1.53h-26.52v-4.8h23.28l-2.64,2.16c0.36-2.08,0.16-3.94-0.6-5.58c-0.76-1.64-1.88-2.94-3.36-3.9
			c-1.48-0.96-3.16-1.44-5.04-1.44s-3.6,0.48-5.16,1.44c-1.56,0.96-2.77,2.33-3.63,4.11s-1.21,3.89-1.05,6.33
			c-0.16,2.36,0.21,4.43,1.11,6.21c0.9,1.78,2.18,3.16,3.84,4.14c1.66,0.98,3.47,1.47,5.43,1.47c2.16,0,3.98-0.5,5.46-1.5
			c1.48-1,2.68-2.28,3.6-3.84l4.68,2.4c-0.64,1.48-1.63,2.83-2.97,4.05c-1.34,1.22-2.92,2.19-4.74,2.91
			C237.97,60.2,235.94,60.56,233.7,60.56z"/>
		<path class="st0" d="M249.15,59.84l11.34-16.2L249.21,27.5h6.72l9.66,14.04h-3.42l9.54-14.04h6.78l-11.28,16.14l11.22,16.2h-6.72
			l-9.54-14.04h3.36l-9.54,14.04H249.15z"/>
		<path class="st0" d="M292.3,60.56c-3.24,0-6.06-0.8-8.46-2.4c-2.4-1.6-4.1-3.76-5.1-6.48l4.44-2.16c0.92,1.92,2.18,3.44,3.78,4.56
			c1.6,1.12,3.38,1.68,5.34,1.68c1.76,0,3.22-0.42,4.38-1.26c1.16-0.84,1.74-1.94,1.74-3.3c0-0.96-0.27-1.73-0.81-2.31
			c-0.54-0.58-1.19-1.04-1.95-1.38c-0.76-0.34-1.46-0.59-2.1-0.75l-4.86-1.38c-2.92-0.84-5.05-2.04-6.39-3.6
			c-1.34-1.56-2.01-3.38-2.01-5.46c0-1.92,0.49-3.59,1.47-5.01c0.98-1.42,2.32-2.53,4.02-3.33s3.61-1.2,5.73-1.2
			c2.84,0,5.39,0.72,7.65,2.16c2.26,1.44,3.87,3.46,4.83,6.06l-4.56,2.1c-0.72-1.68-1.8-3.01-3.24-3.99
			c-1.44-0.98-3.06-1.47-4.86-1.47c-1.64,0-2.94,0.41-3.9,1.23c-0.96,0.82-1.44,1.85-1.44,3.09c0,0.92,0.24,1.67,0.72,2.25
			c0.48,0.58,1.06,1.02,1.74,1.32c0.68,0.3,1.34,0.55,1.98,0.75l5.28,1.56c2.64,0.76,4.69,1.94,6.15,3.54
			c1.46,1.6,2.19,3.52,2.19,5.76c0,1.8-0.5,3.42-1.5,4.86c-1,1.44-2.38,2.56-4.14,3.36C296.66,60.16,294.62,60.56,292.3,60.56z"/>
	</g>
	<g>
		<path class="st2" d="M36.74,19.79L3.71,36.3C2,37.16,0,35.92,0,34.01V2.56C0,1.15,1.15,0,2.56,0H35.6c1.42,0,2.56,1.15,2.56,2.56
			V17.5C38.16,18.47,37.61,19.35,36.74,19.79z"/>
		<path class="st2" d="M0,73.14V41.69c0-1.91,2-3.14,3.71-2.29l33.03,16.52c0.87,0.43,1.42,1.32,1.42,2.29v14.93
			c0,1.42-1.15,2.56-2.56,2.56H2.56C1.15,75.7,0,74.55,0,73.14z"/>
		<path class="st2" d="M78.86,2.56v31.45c0,1.91-2,3.14-3.71,2.29L42.12,19.79c-0.87-0.43-1.42-1.32-1.42-2.29V2.56
			C40.7,1.15,41.85,0,43.27,0H76.3C77.71,0,78.86,1.15,78.86,2.56z"/>
		<path class="st2" d="M42.12,55.91L75.15,39.4c1.7-0.85,3.71,0.39,3.71,2.29v31.45c0,1.42-1.15,2.56-2.56,2.56H43.27
			c-1.42,0-2.56-1.15-2.56-2.56V58.2C40.7,57.23,41.25,56.35,42.12,55.91z"/>
	</g>
</g>
</svg>
